<?xml version="1.0" encoding="iso-8859-1"?>
<!-- Generator: Adobe Illustrator 19.0.0, SVG Export Plug-In . SVG Version: 6.00 Build 0)  -->
<svg version="1.1" id="Layer_1" xmlns="http://www.w3.org/2000/svg" xmlns:xlink="http://www.w3.org/1999/xlink" x="0px" y="0px"
	 viewBox="0 0 512.001 512.001" style="enable-background:new 0 0 512.001 512.001;" xml:space="preserve">
<g>
	<g>
		<g>
			<path d="M131.944,348.515l-7.288-42.492l30.873-30.093c2.726-2.657,3.707-6.631,2.531-10.251
				c-1.176-3.62-4.306-6.259-8.073-6.807l-42.665-6.198l-19.08-38.661c-1.685-3.413-5.161-5.574-8.967-5.574
				c-3.806,0-7.283,2.161-8.967,5.574l-19.08,38.661l-42.665,6.198c-3.767,0.548-6.896,3.187-8.073,6.807s-0.195,7.594,2.531,10.251
				l30.872,30.093l-7.288,42.492c-0.644,3.752,0.899,7.543,3.978,9.78c1.742,1.266,3.806,1.91,5.879,1.91
				c1.592,0,3.189-0.38,4.652-1.148l38.16-20.063l38.16,20.063c3.369,1.771,7.451,1.475,10.531-0.762
				C131.045,356.058,132.587,352.267,131.944,348.515z M106.929,295.37c-2.357,2.298-3.433,5.607-2.876,8.852l4.751,27.703
				l-24.879-13.08c-2.913-1.531-6.394-1.531-9.307,0l-24.876,13.08l4.751-27.703c0.557-3.244-0.519-6.554-2.876-8.852L31.49,275.751
				l27.815-4.041c3.257-0.474,6.073-2.52,7.529-5.471l12.439-25.205l12.439,25.205c1.457,2.951,4.272,4.997,7.529,5.471
				l27.815,4.041L106.929,295.37z"/>
			<path d="M511.511,265.679c-1.176-3.62-4.306-6.259-8.073-6.807l-42.665-6.198l-19.08-38.661
				c-1.685-3.413-5.161-5.574-8.967-5.574c-3.806,0-7.283,2.161-8.967,5.574l-19.08,38.661l-42.665,6.198
				c-3.767,0.548-6.896,3.187-8.073,6.807s-0.195,7.594,2.531,10.251l30.873,30.093l-7.288,42.492
				c-0.644,3.752,0.898,7.543,3.978,9.78c3.08,2.237,7.164,2.531,10.531,0.762l38.16-20.063l38.16,20.063
				c1.463,0.77,3.061,1.148,4.652,1.148c2.073,0,4.137-0.645,5.879-1.91c3.079-2.237,4.622-6.028,3.978-9.78l-7.288-42.492
				l30.872-30.093C511.707,273.273,512.688,269.299,511.511,265.679z M460.384,295.371c-2.357,2.298-3.433,5.607-2.876,8.852
				l4.751,27.703l-24.879-13.08c-1.457-0.766-3.055-1.148-4.653-1.148s-3.197,0.383-4.653,1.148l-24.879,13.08l4.751-27.703
				c0.557-3.244-0.519-6.554-2.876-8.852l-20.127-19.619l27.815-4.041c3.257-0.474,6.073-2.52,7.529-5.471l12.439-25.205
				l12.439,25.205c1.457,2.951,4.272,4.997,7.529,5.471l27.815,4.041L460.384,295.371z"/>
			<path d="M328.318,314.815l-11.185-65.216l47.381-46.185c2.726-2.657,3.707-6.631,2.531-10.251
				c-1.176-3.62-4.306-6.259-8.073-6.807l-65.479-9.514l-29.284-59.336c-1.685-3.413-5.161-5.574-8.967-5.574
				c-3.807,0-7.283,2.161-8.967,5.574l-29.283,59.336l-65.48,9.514c-3.767,0.548-6.896,3.187-8.073,6.807s-0.195,7.594,2.531,10.251
				l47.382,46.185l-11.186,65.216c-0.644,3.752,0.898,7.543,3.978,9.78c3.079,2.237,7.163,2.531,10.531,0.762l58.567-30.791
				l58.567,30.791c1.463,0.77,3.061,1.148,4.652,1.148c2.073,0,4.137-0.645,5.879-1.91
				C327.419,322.358,328.961,318.567,328.318,314.815z M296.531,247.799l8.648,50.427l-45.286-23.809
				c-1.457-0.766-3.055-1.148-4.653-1.148c-1.597-0.001-3.195,0.382-4.652,1.148l-45.286,23.809l8.649-50.427
				c0.557-3.244-0.519-6.554-2.876-8.852l-36.637-35.711l50.631-7.356c3.257-0.474,6.073-2.52,7.529-5.471l22.643-45.88
				l22.643,45.88c1.457,2.951,4.272,4.997,7.529,5.471l50.63,7.356l-36.636,35.711C297.05,241.245,295.974,244.554,296.531,247.799z
				"/>
			<path d="M278,380.07H139c-5.523,0-10,4.478-10,10c0,5.522,4.477,10,10,10h139c5.523,0,10-4.478,10-10
				C288,384.548,283.523,380.07,278,380.07z"/>
			<path d="M373,380.07h-43c-5.523,0-10,4.478-10,10c0,5.522,4.477,10,10,10h43c5.523,0,10-4.478,10-10
				C383,384.548,378.523,380.07,373,380.07z"/>
		</g>
	</g>
</g>
<g>
</g>
<g>
</g>
<g>
</g>
<g>
</g>
<g>
</g>
<g>
</g>
<g>
</g>
<g>
</g>
<g>
</g>
<g>
</g>
<g>
</g>
<g>
</g>
<g>
</g>
<g>
</g>
<g>
</g>
</svg>
