<?xml version="1.0" encoding="iso-8859-1"?>
<!-- Generator: Adobe Illustrator 19.0.0, SVG Export Plug-In . SVG Version: 6.00 Build 0)  -->
<svg version="1.1" id="Layer_1" xmlns="http://www.w3.org/2000/svg" xmlns:xlink="http://www.w3.org/1999/xlink" x="0px" y="0px"
	 viewBox="0 0 297 297" style="enable-background:new 0 0 297 297;" xml:space="preserve">
<g>
	<g>
		<g>
			<g>
				<circle style="fill:#2C3E50;" cx="148.5" cy="148.5" r="148.5"/>
			</g>
		</g>
	</g>
	<path style="fill:#223442;" d="M284.574,136.5H49.771c-7.474,11.155-15.104,22.079-21.914,33.587l126.777,126.777
		c79.029-3.212,142.139-68.177,142.361-147.944L284.574,136.5z"/>
	<g>
		<path style="fill:#FFCD02;" d="M47.471,116.865l7.373,13.4c0.378,0.688,1.043,1.171,1.814,1.318l15.023,2.872
			c2.04,0.39,2.848,2.877,1.427,4.392L62.642,150c-0.537,0.572-0.791,1.354-0.693,2.133l1.911,15.175
			c0.26,2.061-1.856,3.598-3.736,2.714l-13.842-6.507c-0.71-0.334-1.532-0.334-2.242,0l-13.842,6.507
			c-1.88,0.884-3.995-0.653-3.736-2.714l1.911-15.175c0.098-0.779-0.156-1.56-0.693-2.133l-10.466-11.153
			c-1.421-1.515-0.613-4.002,1.427-4.392l15.023-2.872c0.771-0.147,1.436-0.63,1.814-1.318l7.373-13.4
			C43.855,115.045,46.47,115.045,47.471,116.865z"/>
	</g>
	<g>
		<path style="fill:#FFCD02;" d="M117.471,116.865l7.373,13.4c0.378,0.688,1.043,1.171,1.814,1.318l15.023,2.872
			c2.04,0.39,2.848,2.877,1.427,4.392L132.642,150c-0.537,0.572-0.791,1.354-0.693,2.133l1.911,15.175
			c0.26,2.061-1.856,3.598-3.736,2.714l-13.842-6.507c-0.71-0.334-1.532-0.334-2.242,0l-13.842,6.507
			c-1.88,0.884-3.995-0.653-3.736-2.714l1.911-15.175c0.098-0.779-0.156-1.56-0.693-2.133l-10.466-11.153
			c-1.421-1.515-0.613-4.002,1.427-4.392l15.023-2.872c0.771-0.147,1.436-0.63,1.814-1.318l7.373-13.4
			C113.855,115.045,116.47,115.045,117.471,116.865z"/>
	</g>
	<g>
		<path style="fill:#FFCD02;" d="M187.471,116.865l7.373,13.4c0.378,0.688,1.043,1.171,1.814,1.318l15.023,2.872
			c2.04,0.39,2.848,2.877,1.427,4.392L202.643,150c-0.537,0.572-0.791,1.354-0.693,2.133l1.911,15.175
			c0.26,2.061-1.856,3.598-3.736,2.714l-13.842-6.507c-0.71-0.334-1.532-0.334-2.242,0l-13.842,6.507
			c-1.88,0.884-3.995-0.653-3.736-2.714l1.911-15.175c0.098-0.779-0.156-1.56-0.693-2.133l-10.466-11.153
			c-1.421-1.515-0.613-4.002,1.427-4.392l15.023-2.872c0.771-0.147,1.436-0.63,1.814-1.318l7.373-13.4
			C183.855,115.045,186.47,115.045,187.471,116.865z"/>
	</g>
	<g>
		<path style="fill:#FFCD02;" d="M255.162,123.04l5.302,9.635c1.1,1.999,3.015,3.39,5.256,3.819l10.802,2.065l-7.525,8.02
			c-1.561,1.663-2.293,3.915-2.008,6.179l1.374,10.911l-9.953-4.679c-1.009-0.474-2.132-0.725-3.248-0.725
			c-1.115,0-2.238,0.251-3.248,0.725l-9.952,4.679l1.374-10.911c0.285-2.263-0.446-4.516-2.007-6.179l-7.525-8.02l10.802-2.065
			c2.24-0.428,4.156-1.82,5.256-3.819L255.162,123.04 M255.162,115.5c-0.904,0-1.808,0.455-2.309,1.365l-7.373,13.4
			c-0.378,0.688-1.043,1.171-1.814,1.318l-15.023,2.872c-2.04,0.39-2.848,2.877-1.427,4.392L237.682,150
			c0.537,0.572,0.791,1.354,0.693,2.133l-1.911,15.175c-0.208,1.653,1.112,2.969,2.612,2.969c0.37,0,0.751-0.08,1.123-0.255
			l13.842-6.507c0.355-0.167,0.738-0.25,1.121-0.25s0.766,0.083,1.121,0.25l13.842,6.507c0.372,0.175,0.753,0.255,1.123,0.255
			c1.501,0,2.821-1.316,2.613-2.969l-1.911-15.175c-0.098-0.779,0.156-1.56,0.693-2.133l10.466-11.153
			c1.421-1.515,0.613-4.002-1.427-4.392l-15.023-2.872c-0.771-0.147-1.436-0.63-1.814-1.318l-7.373-13.4
			C256.97,115.955,256.066,115.5,255.162,115.5L255.162,115.5z"/>
	</g>
</g>
<g>
</g>
<g>
</g>
<g>
</g>
<g>
</g>
<g>
</g>
<g>
</g>
<g>
</g>
<g>
</g>
<g>
</g>
<g>
</g>
<g>
</g>
<g>
</g>
<g>
</g>
<g>
</g>
<g>
</g>
</svg>
